<svg width="211" height="49" viewBox="0 0 211 49" fill="none" xmlns="http://www.w3.org/2000/svg">
<path d="M20.4065 47.1521C21.5913 48.3103 23.4907 48.2887 24.6489 47.1039L43.5226 27.7963C44.6808 26.6115 44.6592 24.7121 43.4744 23.554C42.2896 22.3958 40.3902 22.4174 39.2321 23.6022L22.4554 40.7644L5.29313 23.9878C4.10832 22.8296 2.20895 22.8512 1.05076 24.036C-0.107427 25.2208 -0.085847 27.1201 1.09896 28.2783L20.4065 47.1521ZM186.387 43.6325C187.56 44.802 189.46 44.7988 190.629 43.6252L209.688 24.5007C210.858 23.3271 210.855 21.4276 209.681 20.258C208.508 19.0885 206.608 19.0917 205.439 20.2653L188.497 37.2649L171.497 20.3234C170.324 19.1538 168.424 19.1571 167.255 20.3306C166.085 21.5042 166.089 23.4037 167.262 24.5733L186.387 43.6325ZM19.0038 1.03291L19.5038 45.0409L25.5034 44.9727L25.0034 0.964743L19.0038 1.03291ZM185.5 39.0051L185.504 41.5126L191.504 41.5024L191.5 38.9949L185.5 39.0051Z" fill="#EDEDED"/>
</svg>
